<svg width="34" height="34" xmlns="http://www.w3.org/2000/svg">

 <g>
  <title>background</title>
  <rect fill="none" id="canvas_background" height="402" width="582" y="-1" x="-1"/>
 </g>
 <g>
  <title>Layer 1</title>
  <path id="svg_2" fill="#ffffff" d="m17.122999,9.2c-1.44,0 -2.641999,0.503 -3.603999,1.320001s-1.525,1.48 -1.687,3.48l2.937,0c0.064,-1 0.302999,-1.231 0.716,-1.611s0.926,-0.618 1.540999,-0.618c0.615002,0 1.116001,0.174 1.504002,0.571c0.389,0.396 0.583,0.882 0.583,1.48s-0.187,1.094001 -0.558001,1.499001l-1.771999,1.769c-0.518002,0.518 -0.626001,0.934 -0.780001,1.249001c-0.154,0.314999 -0.003,0.793999 -0.003,1.441l0,1.219999l2,0l0,-0.832001c0,-0.646 0.289,-1.147999 0.580999,-1.504c0.112001,-0.129 0.333,-0.286999 0.521,-0.473c0.186001,-0.187 0.448,-0.405001 0.715,-0.656c0.267,-0.25 0.5,-0.457001 0.662001,-0.618999c0.160999,-0.161001 0.403999,-0.437 0.712,-0.825001c0.533001,-0.646999 0.805,-1.455999 0.805,-2.427c0,-1.408 -0.450001,-2.502999 -1.356001,-3.289c-0.907999,-0.783 -2.077,-1.175 -3.517,-1.175z"/>
  <path id="svg_3" fill="#ffffff" d="m16.940001,22.145c-0.51,0 -0.946,0.178999 -1.311001,0.534c-0.363999,0.355999 -0.546,0.779999 -0.546,1.273998c0,0.493 0.186,0.914001 0.558,1.262001c0.372001,0.348 0.813001,0.521 1.322,0.521c0.51,0 0.947001,-0.177999 1.311001,-0.533001c0.362999,-0.355999 0.546,-0.780998 0.546,-1.273998s-0.187,-0.914001 -0.559,-1.263c-0.369999,-0.348 -0.810999,-0.521 -1.320999,-0.521z"/>
  <path id="svg_4" fill="#ffffff" d="m17,0c-9.389,0 -17,7.611 -17,17s7.611,17 17,17s17,-7.611 17,-17s-7.611,-17 -17,-17zm0,31c-7.732,0 -14,-6.268 -14,-14c0,-7.732 6.268,-14 14,-14c7.732,0 14,6.268 14,14c0,7.732 -6.268,14 -14,14z"/>
 </g>
</svg>