<svg width="32" height="32" xmlns="http://www.w3.org/2000/svg">

 <title/>
 <g>
  <title>background</title>
  <rect fill="none" id="canvas_background" height="402" width="582" y="-1" x="-1"/>
 </g>
 <g>
  <title>Layer 1</title>
  <path fill="#ffffff" id="svg_1" d="m14.240588,21.320669a1.171811,1.182361 0 0 1 -0.831986,-0.342886l-4.687246,-4.729445a1.171811,1.182361 0 0 1 1.663973,-1.678951l3.85526,3.901791l7.370694,-7.448874a1.171811,1.182361 0 0 1 1.663971,1.678952l-8.202679,8.276526a1.171811,1.182361 0 0 1 -0.831986,0.342886z"/>
  <path fill="#ffffff" id="svg_2" d="m15.999134,31.075825a14.938426,15.075256 0 1 1 14.938429,-15.075256a14.938426,15.075256 0 0 1 -14.938429,15.075256zm0,-27.831243a12.640207,12.755985 0 1 0 12.640209,12.755987a12.640207,12.755985 0 0 0 -12.640209,-12.755987z"/>
 </g>
</svg>